<?xml version="1.0" encoding="utf-8"?>
<!-- Generator: Adobe Illustrator 24.0.2, SVG Export Plug-In . SVG Version: 6.00 Build 0)  -->
<svg version="1.1" xmlns="http://www.w3.org/2000/svg" xmlns:xlink="http://www.w3.org/1999/xlink" x="0px" y="0px"
	 viewBox="0 0 1366 768" style="enable-background:new 0 0 1366 768;" xml:space="preserve">
<style type="text/css">
	.st0{fill:url(#SVGID_1_);}
	.st1{fill:#0A26FF;}
	.st2{opacity:0.6;}
	.st3{fill:#FFFFFF;}
	.st4{opacity:0.8;}
	.st5{opacity:0.9;}
	.st6{opacity:0.5;}
</style>
<g id="Layer_1">
	<g>
		<linearGradient id="SVGID_1_" gradientUnits="userSpaceOnUse" x1="0.5" y1="384" x2="1365.5" y2="384">
			<stop  offset="0" style="stop-color:#435684"/>
			<stop  offset="1" style="stop-color:#15B9FF"/>
			<stop  offset="1" style="stop-color:#000000"/>
		</linearGradient>
		<rect x="0.5" y="0.5" class="st0" width="1365" height="767"/>
		<path class="st1" d="M1365,1v766H1V1H1365 M1366,0H0v768h1366V0L1366,0z"/>
	</g>
</g>
<g id="Layer_2">
	<g class="st2">
		<g>
			<polygon class="st3" points="-8.81,-99 -101.19,-99 -147.38,-19 -101.19,61 -8.81,61 37.38,-19 			"/>
		</g>
		<g class="st4">
			<polygon class="st3" points="-8.81,61 -101.19,61 -147.38,141 -101.19,221 -8.81,221 37.38,141 			"/>
		</g>
		<g>
			<polygon class="st3" points="-8.81,221 -101.19,221 -147.38,301 -101.19,381 -8.81,381 37.38,301 			"/>
		</g>
		<g class="st5">
			<polygon class="st3" points="-8.81,381 -101.19,381 -147.38,461 -101.19,541 -8.81,541 37.38,461 			"/>
		</g>
		<g class="st4">
			<polygon class="st3" points="-8.81,541 -101.19,541 -147.38,621 -101.19,701 -8.81,701 37.38,621 			"/>
		</g>
		<g>
			<polygon class="st3" points="-8.81,701 -101.19,701 -147.38,781 -101.19,861 -8.81,861 37.38,781 			"/>
		</g>
		<g class="st6">
			<polygon class="st3" points="130.19,-19 37.81,-19 -8.38,61 37.81,141 130.19,141 176.38,61 			"/>
		</g>
		<g class="st5">
			<polygon class="st3" points="130.19,141 37.81,141 -8.38,221 37.81,301 130.19,301 176.38,221 			"/>
		</g>
		<g>
			<polygon class="st3" points="130.19,301 37.81,301 -8.38,381 37.81,461 130.19,461 176.38,381 			"/>
		</g>
		<g class="st6">
			<polygon class="st3" points="130.19,461 37.81,461 -8.38,541 37.81,621 130.19,621 176.38,541 			"/>
		</g>
		<g class="st4">
			<polygon class="st3" points="130.19,621 37.81,621 -8.38,701 37.81,781 130.19,781 176.38,701 			"/>
		</g>
		<g>
			<polygon class="st3" points="130.19,781 37.81,781 -8.38,861 37.81,941 130.19,941 176.38,861 			"/>
		</g>
		<g class="st5">
			<polygon class="st3" points="270.19,-99 177.81,-99 131.62,-19 177.81,61 270.19,61 316.38,-19 			"/>
		</g>
		<g class="st4">
			<polygon class="st3" points="272.19,70 179.81,70 133.62,150 179.81,230 272.19,230 318.38,150 			"/>
		</g>
		<g class="st5">
			<polygon class="st3" points="270.19,221 177.81,221 131.62,301 177.81,381 270.19,381 316.38,301 			"/>
		</g>
		<g class="st5">
			<polygon class="st3" points="270.19,381 177.81,381 131.62,461 177.81,541 270.19,541 316.38,461 			"/>
		</g>
		<g>
			<polygon class="st3" points="270.19,541 177.81,541 131.62,621 177.81,701 270.19,701 316.38,621 			"/>
		</g>
		<g class="st6">
			<polygon class="st3" points="270.19,701 177.81,701 131.62,781 177.81,861 270.19,861 316.38,781 			"/>
		</g>
		<g class="st4">
			<polygon class="st3" points="411.19,-10 318.81,-10 272.62,70 318.81,150 411.19,150 457.38,70 			"/>
		</g>
		<g class="st4">
			<polygon class="st3" points="409.19,141 316.81,141 270.62,221 316.81,301 409.19,301 455.38,221 			"/>
		</g>
		<g class="st4">
			<polygon class="st3" points="411.19,310 318.81,310 272.62,390 318.81,470 411.19,470 457.38,390 			"/>
		</g>
		<g class="st4">
			<polygon class="st3" points="411.19,470 318.81,470 272.62,550 318.81,630 411.19,630 457.38,550 			"/>
		</g>
		<g class="st4">
			<polygon class="st3" points="411.19,630 318.81,630 272.62,710 318.81,790 411.19,790 457.38,710 			"/>
		</g>
		<g>
			<polygon class="st3" points="409.19,781 316.81,781 270.62,861 316.81,941 409.19,941 455.38,861 			"/>
		</g>
		<g>
			<polygon class="st3" points="548.19,-99 455.81,-99 409.62,-19 455.81,61 548.19,61 594.38,-19 			"/>
		</g>
		<g class="st5">
			<polygon class="st3" points="548.19,61 455.81,61 409.62,141 455.81,221 548.19,221 594.38,141 			"/>
		</g>
		<g>
			<polygon class="st3" points="548.19,221 455.81,221 409.62,301 455.81,381 548.19,381 594.38,301 			"/>
		</g>
		<g>
			<polygon class="st3" points="548.19,381 455.81,381 409.62,461 455.81,541 548.19,541 594.38,461 			"/>
		</g>
		<g class="st4">
			<polygon class="st3" points="550.19,550 457.81,550 411.62,630 457.81,710 550.19,710 596.38,630 			"/>
		</g>
		<g class="st5">
			<polygon class="st3" points="548.19,701 455.81,701 409.62,781 455.81,861 548.19,861 594.38,781 			"/>
		</g>
		<g class="st6">
			<polygon class="st3" points="687.19,-19 594.81,-19 548.62,61 594.81,141 687.19,141 733.38,61 			"/>
		</g>
		<g class="st4">
			<polygon class="st3" points="689.19,150 596.81,150 550.62,230 596.81,310 689.19,310 735.38,230 			"/>
		</g>
		<g class="st6">
			<polygon class="st3" points="687.19,301 594.81,301 548.62,381 594.81,461 687.19,461 733.38,381 			"/>
		</g>
		<g class="st5">
			<polygon class="st3" points="687.19,461 594.81,461 548.62,541 594.81,621 687.19,621 733.38,541 			"/>
		</g>
		<g class="st6">
			<polygon class="st3" points="687.19,621 594.81,621 548.62,701 594.81,781 687.19,781 733.38,701 			"/>
		</g>
		<g>
			<polygon class="st3" points="687.19,781 594.81,781 548.62,861 594.81,941 687.19,941 733.38,861 			"/>
		</g>
		<g class="st4">
			<polygon class="st3" points="829.19,-90 736.81,-90 690.62,-10 736.81,70 829.19,70 875.38,-10 			"/>
		</g>
		<g class="st5">
			<polygon class="st3" points="827.19,61 734.81,61 688.62,141 734.81,221 827.19,221 873.38,141 			"/>
		</g>
		<g>
			<polygon class="st3" points="827.19,221 734.81,221 688.62,301 734.81,381 827.19,381 873.38,301 			"/>
		</g>
		<g class="st5">
			<polygon class="st3" points="827.19,381 734.81,381 688.62,461 734.81,541 827.19,541 873.38,461 			"/>
		</g>
		<g>
			<polygon class="st3" points="827.19,541 734.81,541 688.62,621 734.81,701 827.19,701 873.38,621 			"/>
		</g>
		<g>
			<polygon class="st3" points="827.19,701 734.81,701 688.62,781 734.81,861 827.19,861 873.38,781 			"/>
		</g>
		<g class="st4">
			<polygon class="st3" points="968.19,-10 875.81,-10 829.62,70 875.81,150 968.19,150 1014.38,70 			"/>
		</g>
		<g class="st6">
			<polygon class="st3" points="966.19,141 873.81,141 827.62,221 873.81,301 966.19,301 1012.38,221 			"/>
		</g>
		<g class="st4">
			<polygon class="st3" points="968.19,310 875.81,310 829.62,390 875.81,470 968.19,470 1014.38,390 			"/>
		</g>
		<g class="st6">
			<polygon class="st3" points="966.19,461 873.81,461 827.62,541 873.81,621 966.19,621 1012.38,541 			"/>
		</g>
		<g class="st4">
			<polygon class="st3" points="968.19,630 875.81,630 829.62,710 875.81,790 968.19,790 1014.38,710 			"/>
		</g>
		<g>
			<polygon class="st3" points="966.19,781 873.81,781 827.62,861 873.81,941 966.19,941 1012.38,861 			"/>
		</g>
		<g>
			<polygon class="st3" points="1105.19,-99 1012.81,-99 966.62,-19 1012.81,61 1105.19,61 1151.38,-19 			"/>
		</g>
		<g>
			<polygon class="st3" points="1105.19,61 1012.81,61 966.62,141 1012.81,221 1105.19,221 1151.38,141 			"/>
		</g>
		<g class="st4">
			<polygon class="st3" points="1107.19,230 1014.81,230 968.62,310 1014.81,390 1107.19,390 1153.38,310 			"/>
		</g>
		<g class="st4">
			<polygon class="st3" points="1107.19,390 1014.81,390 968.62,470 1014.81,550 1107.19,550 1153.38,470 			"/>
		</g>
		<g>
			<polygon class="st3" points="1105.19,541 1012.81,541 966.62,621 1012.81,701 1105.19,701 1151.38,621 			"/>
		</g>
		<g class="st5">
			<polygon class="st3" points="1105.19,701 1012.81,701 966.62,781 1012.81,861 1105.19,861 1151.38,781 			"/>
		</g>
		<g class="st6">
			<polygon class="st3" points="1244.19,-19 1151.81,-19 1105.62,61 1151.81,141 1244.19,141 1290.38,61 			"/>
		</g>
		<g class="st5">
			<polygon class="st3" points="1244.19,141 1151.81,141 1105.62,221 1151.81,301 1244.19,301 1290.38,221 			"/>
		</g>
		<g class="st6">
			<polygon class="st3" points="1244.19,301 1151.81,301 1105.62,381 1151.81,461 1244.19,461 1290.38,381 			"/>
		</g>
		<g class="st5">
			<polygon class="st3" points="1244.19,461 1151.81,461 1105.62,541 1151.81,621 1244.19,621 1290.38,541 			"/>
		</g>
		<g class="st6">
			<polygon class="st3" points="1244.19,621 1151.81,621 1105.62,701 1151.81,781 1244.19,781 1290.38,701 			"/>
		</g>
		<g>
			<polygon class="st3" points="1244.19,781 1151.81,781 1105.62,861 1151.81,941 1244.19,941 1290.38,861 			"/>
		</g>
		<g>
			<polygon class="st3" points="1384.19,-99 1291.81,-99 1245.62,-19 1291.81,61 1384.19,61 1430.38,-19 			"/>
		</g>
		<g class="st4">
			<polygon class="st3" points="1386.19,61 1293.81,61 1247.62,141 1293.81,221 1386.19,221 1432.38,141 			"/>
		</g>
		<g class="st4">
			<polygon class="st3" points="1386.19,221 1293.81,221 1247.62,301 1293.81,381 1386.19,381 1432.38,301 			"/>
		</g>
		<g class="st6">
			<polygon class="st3" points="1384.19,381 1291.81,381 1245.62,461 1291.81,541 1384.19,541 1430.38,461 			"/>
		</g>
		<g class="st4">
			<polygon class="st3" points="1384.19,541 1291.81,541 1245.62,621 1291.81,701 1384.19,701 1430.38,621 			"/>
		</g>
		<g>
			<polygon class="st3" points="1384.19,701 1291.81,701 1245.62,781 1291.81,861 1384.19,861 1430.38,781 			"/>
		</g>
		<g>
			<polygon class="st3" points="1523.19,-19 1430.81,-19 1384.62,61 1430.81,141 1523.19,141 1569.38,61 			"/>
		</g>
		<g class="st5">
			<polygon class="st3" points="1523.19,141 1430.81,141 1384.62,221 1430.81,301 1523.19,301 1569.38,221 			"/>
		</g>
		<g>
			<polygon class="st3" points="1523.19,301 1430.81,301 1384.62,381 1430.81,461 1523.19,461 1569.38,381 			"/>
		</g>
		<g>
			<polygon class="st3" points="1523.19,461 1430.81,461 1384.62,541 1430.81,621 1523.19,621 1569.38,541 			"/>
		</g>
		<g class="st5">
			<polygon class="st3" points="1523.19,621 1430.81,621 1384.62,701 1430.81,781 1523.19,781 1569.38,701 			"/>
		</g>
		<g>
			<polygon class="st3" points="1523.19,781 1430.81,781 1384.62,861 1430.81,941 1523.19,941 1569.38,861 			"/>
		</g>
	</g>
	<g class="st2">
		<g>
			<polygon class="st3" points="-85.2,-686.59 -194.92,-730.65 -287.94,-657.67 -271.25,-540.61 -161.53,-496.55 -68.5,-569.53 			
				"/>
		</g>
		<g class="st4">
			<polygon class="st3" points="-161.53,-496.55 -271.25,-540.61 -364.27,-467.63 -347.57,-350.58 -237.85,-306.51 -144.83,-379.49 
							"/>
		</g>
		<g>
			<polygon class="st3" points="-237.85,-306.51 -347.57,-350.58 -440.6,-277.59 -423.9,-160.54 -314.18,-116.47 -221.16,-189.46 
							"/>
		</g>
		<g class="st5">
			<polygon class="st3" points="-314.18,-116.47 -423.9,-160.54 -516.92,-87.55 -500.23,29.5 -390.51,73.57 -297.49,0.58 			"/>
		</g>
		<g class="st4">
			<polygon class="st3" points="-390.51,73.57 -500.23,29.5 -593.25,102.49 -576.55,219.54 -466.83,263.61 -373.81,190.62 			"/>
		</g>
		<g>
			<polygon class="st3" points="-466.83,263.61 -576.55,219.54 -669.58,292.53 -652.88,409.58 -543.16,453.65 -450.14,380.66 			"/>
		</g>
		<g class="st6">
			<polygon class="st3" points="41.73,-525.26 -67.99,-569.33 -161.01,-496.34 -144.31,-379.29 -34.6,-335.22 58.43,-408.21 			"/>
		</g>
		<g class="st5">
			<polygon class="st3" points="-34.6,-335.22 -144.31,-379.29 -237.34,-306.3 -220.64,-189.25 -110.92,-145.18 -17.9,-218.17 			
				"/>
		</g>
		<g>
			<polygon class="st3" points="-110.92,-145.18 -220.64,-189.25 -313.66,-116.26 -296.97,0.79 -187.25,44.86 -94.23,-28.13 			"/>
		</g>
		<g class="st6">
			<polygon class="st3" points="-187.25,44.86 -296.97,0.79 -389.99,73.78 -373.29,190.83 -263.58,234.9 -170.55,161.91 			"/>
		</g>
		<g class="st4">
			<polygon class="st3" points="-263.58,234.9 -373.29,190.83 -466.32,263.82 -449.62,380.87 -339.9,424.94 -246.88,351.95 			"/>
		</g>
		<g>
			<polygon class="st3" points="-339.9,424.94 -449.62,380.87 -542.64,453.85 -525.95,570.91 -416.23,614.97 -323.21,541.99 			"/>
		</g>
		<g class="st5">
			<polygon class="st3" points="246.18,-553.49 136.46,-597.56 43.44,-524.57 60.13,-407.52 169.85,-363.45 262.88,-436.44 			"/>
		</g>
		<g class="st4">
			<polygon class="st3" points="167.93,-351.81 58.22,-395.88 -34.81,-322.89 -18.11,-205.84 91.61,-161.77 184.63,-234.76 			"/>
		</g>
		<g class="st5">
			<polygon class="st3" points="93.53,-173.41 -16.19,-217.48 -109.22,-144.5 -92.52,-27.44 17.2,16.62 110.22,-56.36 			"/>
		</g>
		<g class="st5">
			<polygon class="st3" points="17.2,16.62 -92.52,-27.44 -185.54,45.54 -168.85,162.6 -59.13,206.66 33.89,133.68 			"/>
		</g>
		<g>
			<polygon class="st3" points="-59.13,206.66 -168.85,162.6 -261.87,235.58 -245.17,352.63 -135.45,396.7 -42.43,323.72 			"/>
		</g>
		<g class="st6">
			<polygon class="st3" points="-135.45,396.7 -245.17,352.63 -338.2,425.62 -321.5,542.67 -211.78,586.74 -118.76,513.76 			"/>
		</g>
		<g class="st4">
			<polygon class="st3" points="371.19,-380.52 261.47,-424.59 168.45,-351.6 185.15,-234.55 294.87,-190.48 387.89,-263.47 			"/>
		</g>
		<g class="st4">
			<polygon class="st3" points="296.79,-202.12 187.07,-246.19 94.04,-173.21 110.74,-56.15 220.46,-12.09 313.48,-85.07 			"/>
		</g>
		<g class="st4">
			<polygon class="st3" points="218.54,-0.44 108.82,-44.51 15.8,28.48 32.49,145.53 142.21,189.6 235.24,116.61 			"/>
		</g>
		<g class="st4">
			<polygon class="st3" points="142.21,189.6 32.49,145.53 -60.53,218.52 -43.83,335.57 65.89,379.64 158.91,306.65 			"/>
		</g>
		<g class="st4">
			<polygon class="st3" points="65.89,379.64 -43.83,335.57 -136.85,408.55 -120.16,525.61 -10.44,569.67 82.58,496.69 			"/>
		</g>
		<g>
			<polygon class="st3" points="-8.52,558.03 -118.24,513.96 -211.26,586.95 -194.57,704 -84.85,748.07 8.17,675.08 			"/>
		</g>
		<g>
			<polygon class="st3" points="576.37,-420.87 466.65,-464.94 373.63,-391.96 390.33,-274.9 500.04,-230.84 593.07,-303.82 			"/>
		</g>
		<g class="st5">
			<polygon class="st3" points="500.04,-230.84 390.33,-274.9 297.3,-201.92 314,-84.86 423.72,-40.8 516.74,-113.78 			"/>
		</g>
		<g>
			<polygon class="st3" points="423.72,-40.8 314,-84.86 220.98,-11.88 237.67,105.18 347.39,149.24 440.41,76.26 			"/>
		</g>
		<g>
			<polygon class="st3" points="347.39,149.24 237.67,105.18 144.65,178.16 161.35,295.21 271.06,339.28 364.09,266.3 			"/>
		</g>
		<g class="st4">
			<polygon class="st3" points="269.15,350.92 159.43,306.86 66.4,379.84 83.1,496.9 192.82,540.96 285.84,467.98 			"/>
		</g>
		<g class="st5">
			<polygon class="st3" points="194.74,529.32 85.02,485.25 -8,558.24 8.69,675.29 118.41,719.36 211.43,646.37 			"/>
		</g>
		<g class="st6">
			<polygon class="st3" points="703.3,-259.55 593.59,-303.61 500.56,-230.63 517.26,-113.57 626.98,-69.51 720,-142.49 			"/>
		</g>
		<g class="st4">
			<polygon class="st3" points="625.06,-57.86 515.34,-101.93 422.32,-28.94 439.01,88.11 548.73,132.18 641.76,59.19 			"/>
		</g>
		<g class="st6">
			<polygon class="st3" points="550.65,120.53 440.93,76.46 347.91,149.45 364.6,266.5 474.32,310.57 567.35,237.58 			"/>
		</g>
		<g class="st5">
			<polygon class="st3" points="474.32,310.57 364.6,266.5 271.58,339.49 288.28,456.54 398,500.61 491.02,427.62 			"/>
		</g>
		<g class="st6">
			<polygon class="st3" points="398,500.61 288.28,456.54 195.26,529.53 211.95,646.58 321.67,690.65 414.69,617.66 			"/>
		</g>
		<g>
			<polygon class="st3" points="321.67,690.65 211.95,646.58 118.93,719.57 135.62,836.62 245.34,880.69 338.37,807.7 			"/>
		</g>
		<g class="st4">
			<polygon class="st3" points="905.83,-276.14 796.11,-320.2 703.09,-247.22 719.79,-130.16 829.51,-86.1 922.53,-159.08 			"/>
		</g>
		<g class="st5">
			<polygon class="st3" points="831.42,-97.74 721.71,-141.81 628.68,-68.82 645.38,48.23 755.1,92.3 848.12,19.31 			"/>
		</g>
		<g>
			<polygon class="st3" points="755.1,92.3 645.38,48.23 552.36,121.22 569.05,238.27 678.77,282.34 771.79,209.35 			"/>
		</g>
		<g class="st5">
			<polygon class="st3" points="678.77,282.34 569.05,238.27 476.03,311.26 492.73,428.31 602.44,472.38 695.47,399.39 			"/>
		</g>
		<g>
			<polygon class="st3" points="602.44,472.38 492.73,428.31 399.7,501.29 416.4,618.35 526.12,662.41 619.14,589.43 			"/>
		</g>
		<g>
			<polygon class="st3" points="526.12,662.41 416.4,618.35 323.38,691.33 340.07,808.39 449.79,852.45 542.81,779.47 			"/>
		</g>
		<g class="st4">
			<polygon class="st3" points="1032.77,-114.81 923.05,-158.87 830.02,-85.89 846.72,31.16 956.44,75.23 1049.46,2.25 			"/>
		</g>
		<g class="st6">
			<polygon class="st3" points="958.36,63.59 848.64,19.52 755.62,92.51 772.31,209.56 882.03,253.63 975.05,180.64 			"/>
		</g>
		<g class="st4">
			<polygon class="st3" points="880.11,265.27 770.39,221.2 677.37,294.19 694.07,411.24 803.79,455.31 896.81,382.32 			"/>
		</g>
		<g class="st6">
			<polygon class="st3" points="805.7,443.67 695.98,399.6 602.96,472.58 619.66,589.64 729.38,633.7 822.4,560.72 			"/>
		</g>
		<g class="st4">
			<polygon class="st3" points="727.46,645.35 617.74,601.28 524.72,674.27 541.41,791.32 651.13,835.39 744.16,762.4 			"/>
		</g>
		<g>
			<polygon class="st3" points="653.05,823.74 543.33,779.68 450.31,852.66 467,969.71 576.72,1013.78 669.75,940.8 			"/>
		</g>
		<g>
			<polygon class="st3" points="1237.94,-155.16 1128.22,-199.23 1035.2,-126.24 1051.9,-9.19 1161.62,34.88 1254.64,-38.11 			"/>
		</g>
		<g>
			<polygon class="st3" points="1161.62,34.88 1051.9,-9.19 958.88,63.8 975.57,180.85 1085.29,224.92 1178.31,151.93 			"/>
		</g>
		<g class="st4">
			<polygon class="st3" points="1083.37,236.56 973.65,192.49 880.63,265.48 897.33,382.53 1007.05,426.6 1100.07,353.61 			"/>
		</g>
		<g class="st4">
			<polygon class="st3" points="1007.05,426.6 897.33,382.53 804.3,455.52 821,572.57 930.72,616.64 1023.74,543.65 			"/>
		</g>
		<g>
			<polygon class="st3" points="932.64,604.99 822.92,560.93 729.89,633.91 746.59,750.97 856.31,795.03 949.33,722.05 			"/>
		</g>
		<g class="st5">
			<polygon class="st3" points="856.31,795.03 746.59,750.97 653.57,823.95 670.26,941 779.98,985.07 873.01,912.09 			"/>
		</g>
		<g class="st6">
			<polygon class="st3" points="1364.88,6.17 1255.16,-37.9 1162.13,35.09 1178.83,152.14 1288.55,196.21 1381.57,123.22 			"/>
		</g>
		<g class="st5">
			<polygon class="st3" points="1288.55,196.21 1178.83,152.14 1085.81,225.12 1102.5,342.18 1212.22,386.24 1305.25,313.26 			"/>
		</g>
		<g class="st6">
			<polygon class="st3" points="1212.22,386.24 1102.5,342.18 1009.48,415.16 1026.18,532.22 1135.9,576.28 1228.92,503.3 			"/>
		</g>
		<g class="st5">
			<polygon class="st3" points="1135.9,576.28 1026.18,532.22 933.15,605.2 949.85,722.25 1059.57,766.32 1152.59,693.34 			"/>
		</g>
		<g class="st6">
			<polygon class="st3" points="1059.57,766.32 949.85,722.25 856.83,795.24 873.52,912.29 983.24,956.36 1076.27,883.37 			"/>
		</g>
		<g>
			<polygon class="st3" points="983.24,956.36 873.52,912.29 780.5,985.28 797.2,1102.33 906.92,1146.4 999.94,1073.41 			"/>
		</g>
		<g>
			<polygon class="st3" points="1569.32,-22.07 1459.6,-66.13 1366.58,6.85 1383.28,123.9 1493,167.97 1586.02,94.99 			"/>
		</g>
		<g class="st4">
			<polygon class="st3" points="1495.37,168.93 1385.65,124.86 1292.63,197.84 1309.33,314.9 1419.05,358.96 1512.07,285.98 			"/>
		</g>
		<g class="st4">
			<polygon class="st3" points="1419.05,358.96 1309.33,314.9 1216.3,387.88 1233,504.94 1342.72,549 1435.74,476.02 			"/>
		</g>
		<g class="st6">
			<polygon class="st3" points="1340.34,548.05 1230.62,503.98 1137.6,576.97 1154.3,694.02 1264.02,738.09 1357.04,665.1 			"/>
		</g>
		<g class="st4">
			<polygon class="st3" points="1264.02,738.09 1154.3,694.02 1061.28,767.01 1077.97,884.06 1187.69,928.13 1280.71,855.14 			"/>
		</g>
		<g>
			<polygon class="st3" points="1187.69,928.13 1077.97,884.06 984.95,957.05 1001.64,1074.1 1111.36,1118.17 1204.39,1045.18 			
				"/>
		</g>
		<g>
			<polygon class="st3" points="1696.26,139.26 1586.54,95.19 1493.51,168.18 1510.21,285.23 1619.93,329.3 1712.95,256.31 			"/>
		</g>
		<g class="st5">
			<polygon class="st3" points="1619.93,329.3 1510.21,285.23 1417.19,358.22 1433.88,475.27 1543.6,519.34 1636.63,446.35 			"/>
		</g>
		<g>
			<polygon class="st3" points="1543.6,519.34 1433.88,475.27 1340.86,548.26 1357.56,665.31 1467.28,709.38 1560.3,636.39 			"/>
		</g>
		<g>
			<polygon class="st3" points="1467.28,709.38 1357.56,665.31 1264.53,738.3 1281.23,855.35 1390.95,899.42 1483.97,826.43 			"/>
		</g>
		<g class="st5">
			<polygon class="st3" points="1390.95,899.42 1281.23,855.35 1188.21,928.34 1204.9,1045.39 1314.62,1089.46 1407.65,1016.47 			
				"/>
		</g>
		<g>
			<polygon class="st3" points="1314.62,1089.46 1204.9,1045.39 1111.88,1118.37 1128.58,1235.43 1238.3,1279.49 1331.32,1206.51 
							"/>
		</g>
	</g>
</g>
</svg>
